<?xml version="1.0" encoding="utf-8"?>
<!-- Generator: Adobe Illustrator 19.1.0, SVG Export Plug-In . SVG Version: 6.00 Build 0)  -->
<!DOCTYPE svg PUBLIC "-//W3C//DTD SVG 1.1//EN" "http://www.w3.org/Graphics/SVG/1.1/DTD/svg11.dtd">
<svg version="1.1" id="Layer_1" xmlns="http://www.w3.org/2000/svg" xmlns:xlink="http://www.w3.org/1999/xlink" x="0px" y="0px"
	 viewBox="0 0 250 250" enable-background="new 0 0 250 250" xml:space="preserve">
<g>
	<rect x="0.2" y="0.2" fill="none" width="249.5" height="249.5"/>
	<g>
		<path fill="#FFFFFF" d="M146.7,67.5h5.2c0-15.6-12.7-28.3-28.3-28.3c-15.6,0-28.3,12.7-28.3,28.3c0,15.6,12.7,28.3,28.3,28.3
			c15.6,0,28.3-12.7,28.3-28.3H146.7h-5.2c0,9.9-8,17.9-17.9,17.9c-9.9,0-17.9-8-17.9-17.9c0-9.9,8-17.9,17.9-17.9
			c9.9,0,17.9,8,17.9,17.9H146.7z"/>
		<path fill="#FFFFFF" d="M93.6,205.6v-62.8c0-8.3,3.4-15.8,8.8-21.2c5.5-5.4,12.9-8.8,21.2-8.8c8.3,0,15.8,3.4,21.2,8.8
			c5.4,5.5,8.8,12.9,8.8,21.2v62.8H164l0-62.8c0-22.3-18.1-40.4-40.4-40.4c-22.3,0-40.4,18.1-40.4,40.4v62.8H93.6L93.6,205.6z"/>
		<path fill="#FFFFFF" d="M13.9,205.6v-39c0-8.3,3.4-15.8,8.8-21.2c5.5-5.4,12.9-8.8,21.2-8.8c8.7,0,16.5,3.7,22,9.6l7.6-7.1
			c-7.4-7.9-17.9-12.9-29.6-12.9c-22.3,0-40.4,18.1-40.4,40.4v39H13.9L13.9,205.6z"/>
		<path fill="#FFFFFF" d="M242.8,205.6v-39c0-22.3-18.1-40.4-40.4-40.4c-11.7,0-22.2,5-29.6,12.9l7.6,7.1c5.5-5.9,13.3-9.6,22-9.6
			c8.3,0,15.8,3.4,21.2,8.8c5.4,5.5,8.8,12.9,8.8,21.2v39H242.8L242.8,205.6z"/>
		<path fill="#FFFFFF" d="M67,90.6h5.2c0-15.6-12.7-28.3-28.3-28.3c-15.6,0-28.3,12.7-28.3,28.3c0,15.6,12.7,28.3,28.3,28.3
			c15.6,0,28.3-12.7,28.3-28.3H67h-5.2c0,9.9-8,17.9-17.9,17.9c-9.9,0-17.9-8-17.9-17.9c0-9.9,8-17.9,17.9-17.9
			c9.9,0,17.9,8,17.9,17.9H67z"/>
		<path fill="#FFFFFF" d="M225,90.6h5.2c0-15.6-12.7-28.3-28.3-28.3c-15.6,0-28.3,12.7-28.3,28.3c0,15.6,12.7,28.3,28.3,28.3
			c15.6,0,28.3-12.7,28.3-28.3H225h-5.2c0,9.9-8,17.9-17.9,17.9c-9.9,0-17.9-8-17.9-17.9c0-9.9,8-17.9,17.9-17.9
			c9.9,0,17.9,8,17.9,17.9H225z"/>
	</g>
</g>
</svg>
