<?xml version="1.0" standalone="no"?>
<!DOCTYPE svg PUBLIC "-//W3C//DTD SVG 1.1//EN" "http://www.w3.org/Graphics/SVG/1.1/DTD/svg11.dtd" >
<svg xmlns="http://www.w3.org/2000/svg" xmlns:xlink="http://www.w3.org/1999/xlink" version="1.1">
<metadata></metadata>
<defs>
<font id="bernina_sansbold" horiz-adv-x="1392" >
<font-face units-per-em="2048" ascent="1651" descent="-397" />
<missing-glyph horiz-adv-x="548" />
<glyph horiz-adv-x="0" />
<glyph horiz-adv-x="682" />
<glyph unicode=" "  horiz-adv-x="548" />
<glyph unicode="&#x09;" horiz-adv-x="548" />
<glyph unicode="&#xa0;" horiz-adv-x="548" />
<glyph unicode="!" horiz-adv-x="747" d="M199 1540h370l-37 -1083h-296zM213 0v305h342v-305h-342z" />
<glyph unicode="&#x22;" horiz-adv-x="999" d="M174 1020v577h287l-88 -577h-199zM559 1020v577h287l-88 -577h-199z" />
<glyph unicode="#" horiz-adv-x="1687" d="M162 281l22 237h219l37 373h-217l23 237h219l29 281h278l-29 -281h285l29 281h280l-28 -281h217l-23 -237h-219l-37 -373h217l-22 -237h-219l-29 -281h-279l27 281h-285l-26 -281h-281l29 281h-217zM682 518h285l37 373h-285z" />
<glyph unicode="$" horiz-adv-x="1327" d="M115 993q0 169 136 267t386 110l14 170h234l-27 -174q75 -6 149.5 -18t112.5 -20l37 -9v-246h-16q-136 44 -316 60l-37 -316q52 -13 91 -24t87 -29.5t83 -38.5t70 -50t57 -65t35.5 -82t13.5 -102q0 -184 -137.5 -279t-385.5 -108l-12 -170h-233l24 172q-84 7 -165 21.5 t-120 25.5l-38 10v250h16q145 -52 340 -72l39 330q-53 15 -92 27t-87.5 32t-83 40t-69.5 50t-57 63.5t-35.5 78t-13.5 96.5zM416 1018q0 -56 44.5 -91t129.5 -61l26 273q-102 -6 -151 -35t-49 -86zM723 268q107 6 154 35.5t47 83.5q0 56 -44.5 93.5t-127.5 66.5z" />
<glyph unicode="%" horiz-adv-x="1882" d="M106 1073q0 162 109.5 263.5t273.5 101.5q162 0 271.5 -101.5t109.5 -261.5q0 -162 -109.5 -263t-273.5 -101q-162 0 -271.5 101t-109.5 261zM197 0v14l663 752l516 643h310v-14l-664 -752l-516 -643h-309zM348 1073q0 -75 39 -119.5t102 -44.5q62 0 101 45t39 121 q0 74 -39.5 119t-102.5 45q-62 0 -100.5 -45t-38.5 -121zM1012 334q0 162 109.5 263t273.5 101q162 0 271.5 -101t109.5 -261q0 -162 -109.5 -263.5t-273.5 -101.5q-162 0 -271.5 101.5t-109.5 261.5zM1253 334q0 -74 39.5 -119t102.5 -45q62 0 100.5 45t38.5 121 q0 75 -39 119.5t-102 44.5q-62 0 -101 -45t-39 -121z" />
<glyph unicode="&#x26;" horiz-adv-x="1658" d="M80 383q0 146 81 243t240 173q-104 103 -153 189t-49 190q0 175 128 283t355 108q219 0 341 -100t122 -257q0 -69 -25.5 -130.5t-75 -113t-101.5 -91t-126 -84.5l295 -283q57 129 80 317h309q-30 -277 -184 -487l334 -324v-16h-398l-149 147q-172 -172 -486 -172 q-258 0 -398 108.5t-140 299.5zM430 410q0 -91 68.5 -145t179.5 -54q142 0 256 96l-354 332q-73 -55 -111.5 -109t-38.5 -120zM524 1190q0 -60 35.5 -121.5t110.5 -136.5q90 66 139 125t49 133q0 71 -48.5 113.5t-121.5 42.5q-72 0 -118 -42t-46 -114z" />
<glyph unicode="'" horiz-adv-x="643" d="M174 1020v577h315l-86 -577h-229z" />
<glyph unicode="(" horiz-adv-x="757" d="M104 643q0 118 18.5 235t47.5 208.5t64.5 175t71 143t64.5 104t48 66.5l18 22h244q-10 -15 -27.5 -42.5t-61 -121t-77 -196.5t-61 -265t-27.5 -329t26 -327t63.5 -268t75 -192.5t63.5 -124.5l26 -40h-244q-7 8 -19 22.5t-46.5 64.5t-66 105t-69.5 141.5t-65.5 176 t-46.5 207t-19 235.5z" />
<glyph unicode=")" horiz-adv-x="757" d="M78 -309q10 14 27.5 41.5t61 121t77 196.5t61 264.5t27.5 328.5t-26 327t-63.5 268.5t-75 193t-63.5 124.5l-26 41h244q7 -8 19 -22.5t46.5 -65t65.5 -105.5t69 -142t65.5 -176.5t46.5 -207t19 -235.5t-18.5 -234.5t-47.5 -208t-64 -175t-70.5 -143t-64.5 -103.5t-48 -66 l-18 -22h-244z" />
<glyph unicode="*" horiz-adv-x="1175" d="M121 1245l74 228l280 -99l-8 297h240l-7 -297l279 99l76 -228l-287 -86l180 -235l-192 -142l-168 244l-170 -244l-191 142l179 235z" />
<glyph unicode="+" d="M139 453v247h408v441h297v-441h409v-247h-409v-439h-297v439h-408z" />
<glyph unicode="," horiz-adv-x="620" d="M82 -279l86 611h340l-166 -611h-260z" />
<glyph unicode="-" horiz-adv-x="907" d="M119 514v260h669v-260h-669z" />
<glyph unicode="." horiz-adv-x="614" d="M139 0v332h344v-332h-344z" />
<glyph unicode="/" horiz-adv-x="974" d="M31 -57l631 1654h282l-631 -1654h-282z" />
<glyph unicode="0" horiz-adv-x="1400" d="M133 700q0 736 572 736q563 0 563 -727q0 -736 -572 -736q-563 0 -563 727zM492 705q0 -264 47.5 -375t160.5 -111t161 111.5t48 374.5t-48 374t-161 111t-160.5 -110.5t-47.5 -374.5z" />
<glyph unicode="1" horiz-adv-x="880" d="M66 1020v256l415 133h224v-1409h-338v1114l-287 -94h-14z" />
<glyph unicode="2" horiz-adv-x="1161" d="M111 0v229q262 264 301 305q180 190 232 309q32 71 32 138q0 91 -58 140.5t-176 49.5q-59 0 -134 -12.5t-120 -25.5l-45 -13h-14v258q166 45 365 45q273 0 407.5 -107.5t134.5 -291.5q0 -57 -13.5 -112.5t-34 -102t-57.5 -98.5t-69.5 -91t-84.5 -90.5t-90 -86t-98.5 -89 t-96.5 -88.5h557v-266h-938z" />
<glyph unicode="3" horiz-adv-x="1163" d="M111 33v256h14q163 -51 315 -51q126 0 192 46t66 130q0 98 -82 147q-28 16 -70 24.5t-70 9.5t-77 1h-159v256h161q47 0 71.5 1t59 9.5t62.5 24.5q74 44 74 131q0 153 -217 153q-64 0 -141.5 -12.5t-123.5 -25.5l-45 -13h-16v256q18 5 50 13t127.5 21t186.5 13 q257 0 395 -94.5t138 -265.5q0 -128 -75.5 -210.5t-201.5 -111.5q139 -23 223.5 -111t84.5 -229q0 -194 -161.5 -304.5t-440.5 -110.5q-91 0 -176 12t-125 24z" />
<glyph unicode="4" horiz-adv-x="1304" d="M84 274v242l549 893h381v-877h196v-258h-196v-274h-307v274h-623zM379 532h328v537z" />
<glyph unicode="5" horiz-adv-x="1187" d="M133 37v260h14q20 -7 55 -16.5t125 -26t160 -16.5q250 0 250 192q0 97 -71 145t-232 48q-45 0 -109.5 -3.5t-106.5 -7.5l-42 -4h-16l41 801h807v-262h-539l-16 -279q70 6 131 6q240 0 369.5 -115.5t129.5 -316.5q0 -220 -155.5 -338t-435.5 -118q-93 0 -182.5 12.5 t-133.5 25.5z" />
<glyph unicode="6" horiz-adv-x="1335" d="M133 633q0 411 173.5 600.5t516.5 189.5q77 0 153.5 -8.5t113.5 -16.5l38 -9v-261h-14q-146 43 -283 43q-190 0 -272 -109t-82 -337q35 93 119.5 138.5t200.5 45.5q198 0 316 -121t118 -325q0 -224 -144.5 -357t-402.5 -133q-303 0 -440 191q-111 153 -111 469zM485 442 q0 -102 50.5 -164.5t150.5 -62.5q98 0 148.5 61t50.5 164q0 104 -51 166t-150 62q-97 0 -148 -61t-51 -165z" />
<glyph unicode="7" horiz-adv-x="1122" d="M57 1147v262h981v-195l-456 -1214h-369l471 1147h-627z" />
<glyph unicode="8" horiz-adv-x="1325" d="M104 352q0 128 79 216.5t218 131.5q-126 47 -191 136.5t-65 212.5q0 181 135 283t386 102q244 0 379 -96t135 -261q0 -121 -70 -201t-188 -116q141 -45 220 -143.5t79 -233.5q0 -185 -148.5 -296.5t-421.5 -111.5q-260 0 -403.5 102t-143.5 275zM453 399q0 -90 57 -141 t154 -51q96 0 152 49t56 127q0 47 -21.5 85.5t-61 67t-82 48t-99.5 37.5q-73 -33 -114 -90t-41 -132zM489 1053q0 -147 220 -219q54 28 90.5 79t36.5 123q0 78 -45 122t-129 44t-128.5 -41t-44.5 -108z" />
<glyph unicode="9" horiz-adv-x="1335" d="M104 946q0 224 143.5 357t403.5 133q304 0 441 -191q110 -152 110 -467q0 -412 -174 -602t-516 -190q-77 0 -153.5 8.5t-114.5 17.5l-37 8v261h14q146 -43 283 -43q189 0 271.5 109.5t82.5 336.5q-73 -184 -321 -184q-198 0 -315.5 121t-117.5 325zM451 967 q0 -103 49.5 -164.5t148.5 -61.5t150 61t51 165q0 102 -50.5 164.5t-150.5 62.5q-98 0 -148 -61t-50 -166z" />
<glyph unicode=":" horiz-adv-x="696" d="M176 0v319h344v-319h-344zM176 805v319h344v-319h-344z" />
<glyph unicode=";" horiz-adv-x="696" d="M94 -279l86 611h340l-166 -611h-260zM176 805v319h344v-319h-344z" />
<glyph unicode="&#x3c;" d="M190 440v275l936 362v-262l-669 -233l669 -242v-262z" />
<glyph unicode="=" d="M199 238v233h995v-233h-995zM199 684v234h995v-234h-995z" />
<glyph unicode="&#x3e;" d="M266 78v262l670 233l-670 242v262l936 -362v-275z" />
<glyph unicode="?" horiz-adv-x="1167" d="M119 1237v262q18 6 51.5 15.5t138 25.5t209.5 16q274 0 418.5 -101t144.5 -292q0 -71 -19.5 -130.5t-57 -106t-69.5 -76t-81.5 -67.5t-67.5 -54q-38 -34 -61 -66t-32 -69.5t-11 -62.5t-2 -74h-303q0 59 1 89.5t8.5 76t21.5 76.5t41 69.5t67 75.5q17 16 55 47.5t60 53 t48.5 52.5t39 65t12.5 71q0 80 -63.5 122.5t-184.5 42.5q-74 0 -161 -15t-137 -31l-50 -15h-16zM358 0v305h342v-305h-342z" />
<glyph unicode="@" horiz-adv-x="2068" d="M184 600q0 179 66 334t181.5 265.5t279.5 173.5t354 63q183 0 337.5 -58.5t259.5 -159t163.5 -236t58.5 -288.5q0 -224 -117 -366t-309 -142q-104 0 -167 43.5t-77 116.5q-2 -7 -6 -17.5t-23 -38t-44 -48.5t-71.5 -38.5t-102.5 -17.5q-152 0 -246 114t-94 306 q0 195 96.5 311.5t253.5 116.5q168 0 227 -141l56 121h149v-496q0 -32 0.5 -47.5t4.5 -38t11.5 -33t22.5 -18.5t37 -8q74 0 120 77t46 216q0 167 -66.5 294.5t-200.5 202t-319 74.5q-289 0 -468 -172.5t-179 -454.5q0 -284 188.5 -451t536.5 -167q136 0 277.5 26t214.5 52 l73 26h16v-215q-33 -10 -90 -24.5t-214 -39t-292 -24.5q-221 0 -400.5 60.5t-298 168t-182 255.5t-63.5 323zM883 608q0 -108 34 -163.5t111 -55.5t111.5 55.5t34.5 163.5q0 223 -146 223q-145 0 -145 -223z" />
<glyph unicode="A" horiz-adv-x="1486" d="M14 0l539 1540h389l531 -1540h-373l-111 348h-549l-112 -348h-314zM522 598h389l-190 604z" />
<glyph unicode="B" horiz-adv-x="1441" d="M176 0v1540h559q86 0 136.5 -3t119 -19t121.5 -48q162 -99 162 -307q0 -63 -15.5 -116t-40 -87t-54.5 -60.5t-59.5 -40t-54 -22t-40.5 -10.5l-15 -2q8 0 21 -1t51.5 -9.5t73.5 -22t77.5 -42.5t73 -67.5t51.5 -101t21 -139.5q0 -239 -199 -358q-49 -30 -101.5 -48.5 t-116 -25.5t-104.5 -8.5t-116 -1.5h-551zM508 242h225q39 0 61.5 1.5t59.5 10.5t68 27q92 56 92 174t-101 174q-31 17 -65 25t-58 9t-73 1h-209v-422zM508 926h178q37 0 55 0.5t47.5 7t53.5 20.5q82 49 82 158t-82 158q-24 14 -53.5 20.5t-47.5 7t-55 0.5h-178v-372z" />
<glyph unicode="C" horiz-adv-x="1314" d="M104 770q0 133 28.5 249.5t90 215.5t151.5 170t219 111t286 40q84 0 167 -11t124 -23l40 -11v-264h-16q-14 6 -39.5 14.5t-98 22.5t-136.5 14q-115 0 -202 -41t-139 -114t-78 -166.5t-26 -204.5t26 -205t78 -168t139 -115.5t202 -41.5q64 0 132.5 13t105.5 25l36 13h16 v-264q-16 -5 -44.5 -12.5t-115.5 -20t-171 -12.5q-157 0 -286 40t-219 111t-151.5 170t-90 215.5t-28.5 249.5z" />
<glyph unicode="D" horiz-adv-x="1615" d="M176 0v1540h469q83 0 130 -2t127.5 -11t152 -32.5t137.5 -62.5q146 -85 232.5 -248t86.5 -414q0 -249 -86.5 -413t-236.5 -251q-66 -38 -140 -61.5t-152 -32.5t-120.5 -10.5t-108.5 -1.5h-22h-469zM522 258h144q61 0 98 2t89 14.5t95 36.5q195 109 195 459 q0 354 -201 461q-44 24 -99.5 36t-88.5 13.5t-88 1.5h-144v-1024z" />
<glyph unicode="E" horiz-adv-x="1292" d="M176 0v1540h981v-262h-637v-352h539v-262h-539v-402h670v-262h-1014z" />
<glyph unicode="F" horiz-adv-x="1208" d="M176 0v1540h963v-268h-613v-432h545v-269h-545v-571h-350z" />
<glyph unicode="G" horiz-adv-x="1558" d="M104 756q0 202 62 355.5t177.5 250.5t274 145.5t357.5 48.5q100 0 199 -12t148 -24l48 -11v-268h-16q-19 6 -52.5 15.5t-129.5 25.5t-183 16q-514 0 -514 -526q0 -263 121.5 -402t333.5 -139q38 0 77.5 4.5t59.5 9.5l20 5v321h-247v258h583v-770q-9 -3 -25 -8.5t-68 -20 t-106.5 -25t-136 -19.5t-161.5 -9q-187 0 -336.5 47.5t-258.5 142t-168 244t-59 345.5z" />
<glyph unicode="H" horiz-adv-x="1646" d="M176 0v1540h350v-614h594v614h350v-1540h-350v664h-594v-664h-350z" />
<glyph unicode="I" horiz-adv-x="702" d="M176 0v1540h350v-1540h-350z" />
<glyph unicode="J" horiz-adv-x="964" d="M37 12v262h16q94 -26 174 -26q121 0 174 76q17 26 25.5 61.5t10 63t1.5 83.5v1008h350v-979q0 -63 -1.5 -99t-9 -93t-26 -105.5t-49.5 -91.5q-130 -184 -446 -184q-58 0 -113 6t-81 12z" />
<glyph unicode="K" horiz-adv-x="1492" d="M176 0v1540h344v-653l555 653h363l-537 -625l549 -915h-397l-387 668l-146 -154v-514h-344z" />
<glyph unicode="L" horiz-adv-x="1130" d="M176 0v1540h350v-1270h578v-270h-928z" />
<glyph unicode="M" horiz-adv-x="2109" d="M176 0v1540h461l430 -1075l416 1075h450v-1540h-331v1167l-416 -1091h-289l-416 1091v-1167h-305z" />
<glyph unicode="N" horiz-adv-x="1656" d="M176 0v1540h342l658 -981v981h305v-1540h-305l-695 1012v-1012h-305z" />
<glyph unicode="O" horiz-adv-x="1695" d="M104 766q0 245 86.5 425.5t256 280t405.5 99.5q237 0 405 -100.5t251 -278.5t83 -418q0 -245 -86 -425.5t-255.5 -280t-405.5 -99.5q-237 0 -405.5 100.5t-251.5 278.5t-83 418zM475 770q0 -270 94.5 -406.5t278.5 -136.5t278.5 136.5t94.5 406.5t-94.5 406.5 t-278.5 136.5t-278.5 -136.5t-94.5 -406.5z" />
<glyph unicode="P" horiz-adv-x="1415" d="M176 0v1540h469q64 0 104 -1.5t108.5 -9t129.5 -27t115 -50.5q113 -65 171 -177.5t58 -258.5q0 -160 -67.5 -276.5t-184.5 -182.5q-66 -37 -151.5 -56.5t-141.5 -22.5t-145 -3h-115v-475h-350zM526 733h125q45 0 71.5 1.5t70 12t73.5 31.5q101 70 101 230t-101 229 q-30 21 -73.5 31.5t-70 12t-71.5 1.5h-125v-549z" />
<glyph unicode="Q" horiz-adv-x="1695" d="M104 766q0 245 86.5 425.5t256 280t405.5 99.5q237 0 405 -100.5t251 -278.5t83 -418q0 -236 -82 -414t-237 -278l229 -318h-389l-141 213q-82 -8 -127 -8q-237 0 -405.5 100.5t-251.5 278.5t-83 418zM475 770q0 -270 94.5 -406.5t278.5 -136.5t278.5 136.5t94.5 406.5 t-94.5 406.5t-278.5 136.5t-278.5 -136.5t-94.5 -406.5z" />
<glyph unicode="R" horiz-adv-x="1468" d="M176 0v1540h553q67 0 107 -2t106 -10t123.5 -29.5t108.5 -56.5q176 -121 176 -375q0 -328 -287 -442l358 -625h-387l-299 571h-219v-571h-340zM516 829h213q129 0 186 39q37 25 60.5 73.5t23.5 113.5q0 131 -84 188q-59 39 -186 39h-213v-453z" />
<glyph unicode="S" horiz-adv-x="1263" d="M117 1118q0 208 153 323t424 115q97 0 195.5 -15t148.5 -29l49 -15v-260h-16q-23 8 -61 20.5t-136 33t-172 20.5q-109 0 -164 -39.5t-55 -106.5q0 -55 37.5 -97.5t97 -73.5t132 -61.5t145 -70.5t132 -91t97 -133t37.5 -187q0 -227 -164.5 -347t-451.5 -120 q-111 0 -216.5 17t-155.5 35l-50 17v266h16q26 -10 69.5 -25t153 -40t189.5 -25q115 0 179.5 46t64.5 126q0 58 -37.5 104.5t-97 79.5t-132 65t-145 72t-132 90t-97 128.5t-37.5 177.5z" />
<glyph unicode="T" horiz-adv-x="1251" d="M43 1272v268h1165v-268h-407v-1272h-350v1272h-408z" />
<glyph unicode="U" horiz-adv-x="1601" d="M176 621v919h350v-975q0 -77 12.5 -134t44 -105.5t92 -73.5t148.5 -25t148.5 25t92 73.5t44 105.5t12.5 134v975h305v-919q0 -70 -2 -110.5t-12.5 -108.5t-37 -127.5t-70.5 -112.5q-161 -193 -504 -193q-341 0 -500 193q-35 43 -59.5 94t-37 92t-18.5 98t-7 88t-1 87z " />
<glyph unicode="V" horiz-adv-x="1505" d="M31 1540h379l366 -1167l387 1167h312l-553 -1540h-353z" />
<glyph unicode="W" horiz-adv-x="2211" d="M47 1540h363l270 -1134l283 1103h354l278 -1103l275 1134h295l-412 -1540h-364l-285 1110l-285 -1110h-364z" />
<glyph unicode="X" horiz-adv-x="1517" d="M41 0l496 788l-476 752h420l314 -528l317 528h338l-471 -739l504 -801h-422l-338 575l-346 -575h-336z" />
<glyph unicode="Y" horiz-adv-x="1413" d="M14 1540h408l326 -633l323 633h328l-516 -940v-600h-351v594z" />
<glyph unicode="Z" horiz-adv-x="1345" d="M102 0v254l711 1022h-690v264h1102v-242l-717 -1034h733v-264h-1139z" />
<glyph unicode="[" horiz-adv-x="882" d="M176 -309v1906h602v-245h-297v-1415h297v-246h-602z" />
<glyph unicode="\" horiz-adv-x="974" d="M31 1597h282l631 -1654h-282z" />
<glyph unicode="]" horiz-adv-x="884" d="M106 -63h297v1415h-297v245h603v-1906h-603v246z" />
<glyph unicode="^" horiz-adv-x="1103" d="M70 803l313 737h338l311 -737h-315l-174 465l-181 -465h-292z" />
<glyph unicode="_" horiz-adv-x="757" d="M-8 -47h774v-227h-774v227z" />
<glyph unicode="`" horiz-adv-x="1228" d="M217 1597h367l155 -297h-268z" />
<glyph unicode="a" horiz-adv-x="1245" d="M76 326q0 210 178 301q64 34 160 50.5t161 18.5t191 2q0 39 -1 58.5t-7.5 47t-20.5 46.5q-50 68 -205 68q-75 0 -157.5 -15t-128.5 -30l-45 -15h-17v252q19 5 53.5 13t138 21t204.5 13q163 0 278.5 -36.5t175.5 -125.5q31 -45 47 -108.5t18.5 -110t2.5 -121.5v-655h-260 l-58 184q-24 -94 -107.5 -151.5t-217.5 -57.5q-170 0 -276.5 92.5t-106.5 258.5zM422 350q0 -59 36.5 -92t106.5 -33q59 0 105 24.5t69 67.5q27 53 27 162v27q-105 0 -168.5 -7t-105.5 -30q-70 -37 -70 -119z" />
<glyph unicode="b" horiz-adv-x="1398" d="M154 0v1597h338v-636q31 97 116.5 150.5t216.5 53.5q224 0 353 -155t129 -432q0 -283 -136.5 -443t-379.5 -160q-261 0 -342 189l-78 -164h-217zM489 565q0 -342 228 -342q229 0 229 342t-227 342q-230 0 -230 -342z" />
<glyph unicode="c" horiz-adv-x="1032" d="M92 571q0 278 151.5 432t440.5 154q67 0 130 -8.5t92 -16.5l30 -8v-262h-16q-99 37 -201 37q-266 0 -266 -330q0 -327 266 -327q45 0 95.5 9t77.5 19l28 9h16v-263q-102 -32 -252 -32q-289 0 -440.5 154.5t-151.5 432.5z" />
<glyph unicode="d" horiz-adv-x="1398" d="M92 561q0 129 31 237.5t91.5 191t157.5 129t222 46.5q245 0 313 -180v612h338v-1597h-272l-60 180q-31 -101 -121 -153t-219 -52q-119 0 -212 44.5t-151 123.5t-88 185t-30 233zM453 571q0 -340 227 -340q229 0 229 340t-227 340q-229 0 -229 -340z" />
<glyph unicode="e" horiz-adv-x="1267" d="M92 569q0 278 144.5 440t408.5 162q144 0 255.5 -50.5t176.5 -149.5q31 -48 49.5 -102t26 -126t8.5 -121t2 -145h-723q0 -120 76.5 -187t222.5 -67q69 0 153.5 15t134.5 30l50 15h17v-250q-19 -5 -53 -13.5t-134 -22t-196 -13.5q-305 0 -457 139q-162 150 -162 446z M438 686h383q0 124 -41 190t-139 66q-190 0 -203 -256z" />
<glyph unicode="f" horiz-adv-x="966" d="M41 874v250h215v54q0 59 1.5 87t13.5 79t38 94q31 51 74.5 85.5t126.5 57.5t201 23q52 0 100.5 -4t70.5 -8l23 -5v-256h-16q-80 21 -150 21q-97 0 -127 -62q-18 -39 -18 -123v-43h311v-250h-311v-874h-338v874h-215z" />
<glyph unicode="g" horiz-adv-x="1400" d="M92 588q0 265 137 421t387 156q122 0 205 -43.5t131 -140.5l82 160h213v-957q0 -61 -1.5 -95.5t-8 -88.5t-23 -99.5t-43.5 -86.5q-77 -116 -230 -170t-343 -54q-108 0 -213 16t-156 32l-51 16v278h17q22 -10 59.5 -24.5t142 -39t195.5 -24.5q105 0 178.5 29.5t108.5 81.5 q17 27 25.5 64t9.5 60.5t1 72.5v75q-70 -180 -333 -180q-234 0 -362 144t-128 397zM453 600q0 -54 6 -98t21.5 -86t40.5 -70.5t66 -45.5t95 -17t95 17t66 45.5t40.5 70.5t21.5 86t6 98q0 318 -229 318t-229 -318z" />
<glyph unicode="h" horiz-adv-x="1357" d="M154 0v1597h338v-630q33 96 111 147t218 51q230 0 328 -145q31 -44 46 -104.5t17 -105t2 -140.5v-670h-344v672q0 38 -1 56t-8 47t-21 50q-48 66 -156 66q-192 0 -192 -207v-684h-338z" />
<glyph unicode="i" horiz-adv-x="645" d="M152 1300v297h342v-297h-342zM154 0v1141h338v-1141h-338z" />
<glyph unicode="j" horiz-adv-x="659" d="M-88 -139h16q47 -8 92 -8q95 0 127 57q21 41 21 125v1106h338v-1088q0 -65 -2 -99t-14 -84.5t-37 -92.5q-103 -170 -404 -170q-39 0 -73.5 2.5t-49.5 4.5l-14 3v244zM166 1305v292h342v-292h-342z" />
<glyph unicode="k" horiz-adv-x="1298" d="M154 0v1597h338v-890l382 434h361l-410 -453l422 -688h-387l-262 463l-106 -105v-358h-338z" />
<glyph unicode="l" horiz-adv-x="645" d="M154 0v1597h338v-1597h-338z" />
<glyph unicode="m" horiz-adv-x="2029" d="M154 0v1141h266l61 -197q61 221 336 221q276 0 348 -225q40 112 120 168.5t218 56.5q224 0 320 -145q29 -43 43.5 -102t17 -106.5t2.5 -133.5v-678h-344v676q0 36 -1 55t-7.5 46.5t-20.5 47.5q-46 66 -145 66q-57 0 -94.5 -19.5t-54 -54t-22 -64.5t-5.5 -69v-684h-344 v678q0 35 -1 54t-7.5 46t-20.5 47q-46 66 -145 66q-57 0 -94.5 -19.5t-54 -54t-22 -64.5t-5.5 -69v-684h-344z" />
<glyph unicode="n" horiz-adv-x="1363" d="M154 0v1141h266l61 -197q64 221 346 221q230 0 328 -145q24 -34 38 -71t20 -87t7 -85.5t1 -106.5v-670h-344v672q0 36 -1 55.5t-8 47t-22 48.5q-47 68 -158 68q-190 0 -190 -207v-684h-344z" />
<glyph unicode="o" horiz-adv-x="1353" d="M92 567q0 295 152 449.5t434 154.5q280 0 432 -151.5t152 -446.5t-152 -449.5t-434 -154.5q-280 0 -432 151.5t-152 446.5zM453 573q0 -368 225 -368q223 0 223 362q0 369 -225 369q-223 0 -223 -363z" />
<glyph unicode="p" horiz-adv-x="1398" d="M154 -393v1534h272l59 -180q31 101 121 152.5t219 51.5q158 0 268.5 -77.5t162 -207t51.5 -300.5q0 -129 -31 -237.5t-91.5 -191.5t-157.5 -129.5t-222 -46.5q-245 0 -313 181v-549h-338zM489 569q0 -340 228 -340q229 0 229 340t-227 340q-230 0 -230 -340z" />
<glyph unicode="q" horiz-adv-x="1398" d="M92 563q0 283 136.5 442.5t379.5 159.5q261 0 342 -188l78 164h217v-1534h-338v573q-31 -97 -117 -151t-217 -54q-224 0 -352.5 155.5t-128.5 432.5zM453 575q0 -342 227 -342q229 0 229 342q0 343 -227 343q-229 0 -229 -343z" />
<glyph unicode="r" horiz-adv-x="892" d="M154 0v1141h262l67 -228q14 70 45.5 119t78.5 75.5t101 38t123 11.5h27v-328q-67 13 -133 13q-47 0 -84 -9t-60.5 -22t-40 -35t-24.5 -39.5t-12.5 -45t-5 -42t-0.5 -39.5v-610h-344z" />
<glyph unicode="s" horiz-adv-x="1048" d="M111 37v252h16q22 -8 58 -19t124.5 -30t151.5 -19q75 0 112 24t37 66q0 36 -27.5 63.5t-71.5 47.5t-97.5 40t-106.5 48t-97 64t-71.5 95t-27.5 134q0 166 127 260t356 94q77 0 153 -10.5t113 -21.5l37 -11v-252h-16q-162 58 -285 58q-71 0 -107 -23t-36 -59 q0 -30 27.5 -54t71.5 -42t97 -38t106.5 -49t97.5 -67t71.5 -100t27.5 -142q0 -176 -129.5 -269t-369.5 -93q-92 0 -177.5 13t-125.5 27z" />
<glyph unicode="t" horiz-adv-x="980" d="M41 874v250h201v273l338 92v-365h299v-250h-299v-446q0 -40 0.5 -57.5t6 -44t17.5 -43.5q32 -47 119 -47q33 0 67.5 5t53.5 10l18 5h17v-248q-95 -24 -228 -24q-264 0 -354 135q-26 39 -38.5 93t-14.5 92.5t-2 113.5v456h-201z" />
<glyph unicode="u" horiz-adv-x="1357" d="M154 471v670h344v-672q0 -38 1 -56t8 -46.5t21 -49.5q48 -67 156 -67q47 0 81 14.5t52 35t28 51.5t12.5 54t2.5 52v684h344v-1141h-266l-61 197q-29 -104 -114 -163t-228 -59q-220 0 -316 142q-24 34 -38 71t-19.5 89.5t-6.5 86t-1 107.5z" />
<glyph unicode="v" horiz-adv-x="1298" d="M51 1141h381l246 -776l254 776h315l-426 -1141h-350z" />
<glyph unicode="w" horiz-adv-x="1902" d="M72 1141h354l182 -779l205 758h334l205 -758l182 779h293l-314 -1141h-360l-207 756l-207 -756h-360z" />
<glyph unicode="x" horiz-adv-x="1304" d="M61 0l371 578l-356 563h413l199 -346l201 346h334l-351 -545l379 -596h-413l-222 377l-221 -377h-334z" />
<glyph unicode="y" horiz-adv-x="1288" d="M47 1141h377l250 -727l254 727h311l-600 -1534h-344l190 416z" />
<glyph unicode="z" horiz-adv-x="1124" d="M113 0v274l489 600h-481v250h889v-250l-510 -624h514v-250h-901z" />
<glyph unicode="{" horiz-adv-x="878" d="M76 520v246q95 0 136.5 23.5t41.5 101.5v323q0 48 1.5 76t9.5 72t28 79.5t53 65.5q36 32 80 51.5t107.5 27.5t108 9.5t132.5 1.5v-245q-60 0 -94.5 -4t-65 -18.5t-43 -43.5t-12.5 -76v-303q0 -24 -0.5 -37t-2.5 -37t-7 -39.5t-13 -36.5t-22.5 -36t-33 -30.5t-46 -27.5 t-61.5 -20q39 -9 69 -24t49.5 -30.5t33 -38.5t20 -40t10 -45t4 -43t0.5 -43v-303q0 -38 9.5 -63.5t25 -40.5t44.5 -22.5t58.5 -10t77.5 -2.5v-246q-70 0 -105 0.5t-91.5 5t-91 13.5t-73.5 26t-67 43q-33 30 -53 66t-27.5 81t-9.5 72.5t-2 75.5v323q0 77 -41.5 100t-136.5 23 z" />
<glyph unicode="|" horiz-adv-x="671" d="M176 -393v1990h320v-1990h-320z" />
<glyph unicode="}" horiz-adv-x="878" d="M104 -63q48 0 77.5 2.5t58.5 10t44.5 22.5t25 40.5t9.5 63.5v303q0 27 0.5 43t4 43t10.5 44.5t20.5 40.5t33 38.5t49.5 30.5t69 24q-45 11 -78.5 28t-53 40.5t-31.5 44t-17 52t-6 49.5t-1 50v303q0 47 -12.5 76t-43 43.5t-65 18.5t-94.5 4v245q88 0 132.5 -1.5t108 -9.5 t107.5 -27.5t80 -51.5q43 -39 65 -95.5t25 -95t3 -102.5v-323q0 -78 41.5 -101.5t136.5 -23.5v-246q-95 0 -136.5 -23t-41.5 -100v-323q0 -63 -3 -102t-25 -96.5t-65 -96.5q-28 -26 -67 -43t-73.5 -26t-91 -13.5t-91.5 -5t-105 -0.5v246z" />
<glyph unicode="~" d="M139 375v266q5 6 13.5 15t39 32.5t65.5 41.5t90.5 33t115.5 15q74 0 144 -23t115 -50.5t103.5 -50.5t112.5 -23q46 0 93 15t82 36.5t63 43.5t42 37l15 15h20v-266q-5 -6 -13.5 -15t-39.5 -32.5t-65.5 -41.5t-90.5 -33t-116 -15q-74 0 -144 23t-114.5 50.5t-103 50.5 t-113.5 23q-46 0 -93 -15t-81.5 -37t-62 -43.5t-42.5 -36.5l-14 -15h-21z" />
<glyph unicode="&#xa1;" horiz-adv-x="692" d="M139 -393l39 1085h295l37 -1085h-371zM154 840v301h344v-301h-344z" />
<glyph unicode="&#xa2;" horiz-adv-x="1130" d="M92 639q0 241 142.5 384t394.5 165l16 221h227l-26 -225q48 -4 94.5 -12t69.5 -14l22 -5v-231h-16q-93 22 -193 34l-55 -641q53 4 115 14t97 19l36 8h16v-233q-130 -33 -282 -37l-17 -217h-227l26 233q-208 42 -324 180.5t-116 356.5zM377 645q0 -110 45.5 -189.5 t134.5 -115.5l53 614q-116 -24 -174.5 -104t-58.5 -205z" />
<glyph unicode="&#xa3;" horiz-adv-x="1173" d="M111 0v205q239 120 239 338q0 31 -2 45h-237v252h143q-51 104 -51 200q0 173 142 278t386 105q69 0 138 -8.5t103 -16.5l34 -9v-261h-15q-139 43 -266 43q-197 0 -197 -129q0 -25 8.5 -52t17 -45t28 -53t28.5 -52h348v-252h-282q0 -222 -170 -332h559v-256h-954z" />
<glyph unicode="&#xa4;" horiz-adv-x="1187" d="M92 385l137 133q-43 82 -43 189q0 104 41 184l-135 135l187 182l133 -143q83 39 182 39q97 0 180 -39l133 143l189 -182l-140 -135q43 -88 43 -184q0 -108 -43 -187l140 -135l-189 -180l-133 139q-78 -37 -180 -37q-99 0 -182 39l-133 -141zM420 707q0 -90 46.5 -141.5 t127.5 -51.5q80 0 126 52t46 141q0 88 -46.5 139t-125.5 51q-81 0 -127.5 -51t-46.5 -139z" />
<glyph unicode="&#xa5;" horiz-adv-x="1425" d="M63 1409h379l299 -487l306 487h315l-426 -633h260v-203h-319v-114h319v-203h-319v-256h-326v256h-322v203h322v114h-322v203h260z" />
<glyph unicode="&#xa6;" horiz-adv-x="671" d="M176 369h320v-762h-320v762zM176 836v761h320v-761h-320z" />
<glyph unicode="&#xa7;" horiz-adv-x="1067" d="M90 594q0 50 15.5 92t38.5 68.5t54 47t56 30.5t51 16q-184 99 -184 264q0 141 121 227t342 86q77 0 158 -10.5t123 -21.5l42 -11v-233h-16q-176 55 -303 55q-72 0 -112 -22.5t-40 -59.5q0 -28 23 -51.5t61 -41t86.5 -38t99 -40t99 -49t86.5 -63t61 -84.5t23 -112 q0 -51 -16 -93.5t-39 -69.5t-55 -48t-57 -31.5t-52 -17.5q89 -50 138.5 -114.5t49.5 -159.5q0 -146 -122 -230t-353 -84q-83 0 -163.5 10.5t-119.5 21.5l-39 11v234h17q168 -56 305 -56q77 0 118.5 23t41.5 63q0 33 -29.5 61t-77.5 50t-105 45t-114.5 52.5t-105.5 66 t-77.5 92.5t-29.5 125zM358 657q0 -48 40.5 -88t79 -59t126.5 -55q9 -4 14 -6q34 18 61.5 51t27.5 80q0 28 -13.5 53t-33 42.5t-54.5 36.5t-63.5 31.5t-73.5 30.5q-17 7 -25 10q-86 -44 -86 -127z" />
<glyph unicode="&#xa8;" horiz-adv-x="1228" d="M244 1300v269h293v-269h-293zM690 1300v269h295v-269h-295z" />
<glyph unicode="&#xa9;" horiz-adv-x="1830" d="M104 705q0 218 97.5 384.5t272.5 256.5t400 90q226 0 401.5 -90t273.5 -256.5t98 -384.5t-98 -385.5t-273.5 -258t-401.5 -90.5q-168 0 -311 53t-244 148t-158 232.5t-57 300.5zM326 705q0 -156 66 -279t192.5 -194.5t292.5 -71.5q249 0 398.5 153.5t149.5 391.5 q0 237 -149.5 389.5t-398.5 152.5q-251 0 -401 -152.5t-150 -389.5zM483 705q0 104 37 184t100 127.5t140.5 71.5t165.5 24q52 0 104.5 -8t78.5 -16l26 -9v-217h-17q-67 27 -151 27q-195 0 -195 -184q0 -187 195 -187q37 0 75 7t57 13l19 7h17v-217q-92 -33 -209 -33 q-88 0 -165.5 24.5t-140.5 72.5t-100 128.5t-37 184.5z" />
<glyph unicode="&#xaa;" horiz-adv-x="937" d="M59 999q0 130 111 193q52 29 125 44t124.5 17t147.5 2q0 57 -18 80q-33 37 -143 37q-57 0 -119 -10t-95 -20l-34 -9h-17v191q128 35 310 35q260 0 337 -113q22 -32 33 -76t13 -73t2 -76v-449h-209l-43 121q-22 -65 -83 -101t-155 -36q-128 0 -207.5 63.5t-79.5 179.5z M332 1028q0 -76 104 -76q35 0 60.5 10t38.5 23.5t21 33t9.5 32.5t1.5 28v37q-41 0 -61.5 -0.5t-53.5 -2.5t-50 -8t-35.5 -15t-26.5 -25t-8 -37z" />
<glyph unicode="&#xab;" horiz-adv-x="1294" d="M106 643l250 455h306l-271 -451l271 -457h-306zM633 643l250 455h305l-270 -451l270 -457h-305z" />
<glyph unicode="&#xac;" d="M139 645v248h977v-629h-297v381h-680z" />
<glyph unicode="&#xad;" horiz-adv-x="907" d="M119 514v260h669v-260h-669z" />
<glyph unicode="&#xae;" horiz-adv-x="1236" d="M84 1280q0 228 149.5 365t384.5 137t385 -137t150 -365q0 -152 -69.5 -267t-190 -175t-275.5 -60q-154 0 -275 60t-190 175t-69 267zM248 1280q0 -159 99.5 -258.5t270.5 -99.5q170 0 270.5 99.5t100.5 258.5t-100.5 258.5t-270.5 99.5q-171 0 -270.5 -99.5t-99.5 -258.5 zM395 1034v506h193q51 0 77 -1.5t62.5 -10.5t63.5 -27q63 -43 63 -135q0 -108 -88 -154l104 -178h-184l-70 148h-55v-148h-166zM561 1303h60q69 0 69 57q0 59 -69 59h-60v-116z" />
<glyph unicode="&#xaf;" horiz-adv-x="1228" d="M266 1311v200h697v-200h-697z" />
<glyph unicode="&#xb0;" horiz-adv-x="1042" d="M133 1247q0 158 110 258.5t277 100.5q169 0 279 -100.5t110 -258.5t-110 -257t-279 -99q-168 0 -277.5 99t-109.5 257zM362 1247q0 -71 44 -117.5t114 -46.5t115 46.5t45 117.5t-45 117.5t-115 46.5t-114 -46.5t-44 -117.5z" />
<glyph unicode="&#xb1;" d="M199 0v221h995v-221h-995zM199 625v221h364v295h266v-295h365v-221h-365v-293h-266v293h-364z" />
<glyph unicode="&#xb2;" horiz-adv-x="835" d="M86 674v184q200 183 250 235q111 117 118 194q1 7 1 13q0 50 -36.5 77.5t-107.5 27.5q-39 0 -90.5 -8.5t-82.5 -16.5l-32 -8h-10v205q117 31 258 31q197 0 294 -74t97 -195q0 -36 -9.5 -71.5t-22 -64t-38.5 -61.5t-45.5 -54.5t-56.5 -54t-57.5 -49t-63.5 -50t-61 -47.5 h359v-213h-664z" />
<glyph unicode="&#xb3;" horiz-adv-x="847" d="M86 696v205h10q119 -35 228 -35q155 0 155 90q0 52 -45 74q-33 17 -135 17h-123v196h121q84 0 121 19q41 20 41 65q0 78 -129 78q-45 0 -101 -8.5t-89 -17.5l-34 -9h-10v205q114 33 266 33q183 0 283 -62t100 -180q0 -84 -52 -136.5t-136 -72.5q97 -15 153 -71t56 -146 q0 -132 -116 -204t-316 -72q-68 0 -130 8t-90 16z" />
<glyph unicode="&#xb4;" horiz-adv-x="1228" d="M489 1300l156 297h367l-254 -297h-269z" />
<glyph unicode="&#xb5;" horiz-adv-x="1357" d="M154 -393v1534h344v-690q0 -45 1 -63.5t7.5 -45t21.5 -47.5q46 -66 152 -66q48 0 83 14.5t53 34.5t28.5 51t13 54t2.5 53v705h344v-1141h-252l-37 117q-21 -58 -75 -95.5t-142 -37.5q-149 0 -217 108l11 -485h-338z" />
<glyph unicode="&#xb6;" horiz-adv-x="1787" d="M84 885q0 150 57 265.5t160 180.5q46 29 95 46.5t108.5 23.5t85.5 7t90 1h899v-1597h-289v1345h-223v-1345h-289v573h-86q-80 0 -130 2.5t-134 22.5t-145 59q-102 65 -150.5 173.5t-48.5 242.5zM395 897q0 -67 22 -127t70 -94q53 -39 185 -39h106v520h-106 q-132 0 -185 -37q-45 -31 -68.5 -91.5t-23.5 -131.5z" />
<glyph unicode="&#xb7;" horiz-adv-x="411" d="M43 406v331h326v-331h-326z" />
<glyph unicode="&#xb8;" horiz-adv-x="1232" d="M369 -219h16q49 -12 94 -12q109 0 109 88q0 62 -66 143h158q123 -62 123 -180q0 -96 -81.5 -156.5t-229.5 -60.5q-29 0 -60 2.5t-47 4.5l-16 3v168z" />
<glyph unicode="&#xb9;" horiz-adv-x="655" d="M55 1300v207l297 90h176v-923h-272v684l-190 -58h-11z" />
<glyph unicode="&#xba;" horiz-adv-x="1001" d="M63 1157q0 204 114 309t325 105q208 0 322 -104t114 -306t-114.5 -306.5t-327.5 -104.5q-207 0 -320 102t-113 305zM348 1163q0 -108 34.5 -165.5t117.5 -57.5q82 0 117.5 56.5t35.5 162.5q0 221 -155 221q-82 0 -116 -56t-34 -161z" />
<glyph unicode="&#xbb;" horiz-adv-x="1294" d="M106 190l271 449l-271 459h306l250 -455l-250 -453h-306zM633 190l270 449l-270 459h305l250 -455l-250 -453h-305z" />
<glyph unicode="&#xbc;" horiz-adv-x="2056" d="M59 1282v201l347 114h178v-954h-273v721l-235 -82h-17zM92 -172l787 940l647 829h303v-16l-787 -940l-645 -829h-305v16zM1153 0v221l389 545h293v-563h135v-203h-135v-188h-240v188h-442zM1360 203h235v315z" />
<glyph unicode="&#xbd;" horiz-adv-x="2058" d="M59 1282v201l347 114h178v-954h-273v721l-235 -82h-17zM92 -172l787 940l647 829h303v-16l-787 -940l-645 -829h-305v16zM1280 -12q86 75 141 125.5t107.5 104t81.5 93t46 79t17 75.5q0 115 -143 115q-37 0 -87.5 -8t-82.5 -16l-31 -9h-16v198q121 33 264 33 q197 0 289 -76t92 -204q0 -34 -6 -66.5t-20 -63.5t-27.5 -56t-40 -55.5t-43.5 -50t-52 -50t-53.5 -46.5t-59 -49t-57.5 -47h369v-202h-688v176z" />
<glyph unicode="&#xbe;" horiz-adv-x="2172" d="M104 666v196h17q110 -37 221 -37q170 0 170 107q0 21 -7.5 37.5t-18 27t-28.5 18t-32 11.5t-35.5 6t-32 2h-28.5h-144v189h136q22 0 34.5 0.5t36.5 3t38.5 8.5t30.5 16t24 27.5t8 40.5q0 96 -146 96q-47 0 -102.5 -9.5t-87.5 -19.5l-31 -10h-16v199q116 35 268 35 q187 0 290 -66.5t103 -185.5q0 -89 -55 -144t-144 -75q100 -14 159 -73t59 -153q0 -133 -117.5 -207.5t-321.5 -74.5q-68 0 -130 8.5t-90 17.5zM209 -172l786 940l647 829h304v-16l-787 -940l-645 -829h-305v16zM1270 0v221l389 545h293v-563h135v-203h-135v-188h-240v188 h-442zM1477 203h235v315z" />
<glyph unicode="&#xbf;" horiz-adv-x="1028" d="M0 -16q0 58 15 110.5t36 88.5t56 73t61.5 59t67 53.5t59.5 47.5q38 33 61 64.5t32 69.5t11 64t2 78h304q0 -60 -1.5 -92.5t-8.5 -78t-21.5 -76.5t-41.5 -69t-67 -75q-18 -16 -58 -50t-60.5 -54t-47 -51t-38 -63.5t-11.5 -68.5q0 -80 64.5 -123t185.5 -43q73 0 159.5 15.5 t136.5 30.5l50 16h17v-262q-19 -6 -53 -16t-138.5 -26t-208.5 -16q-273 0 -418 101.5t-145 292.5zM379 840v301h344v-301h-344z" />
<glyph unicode="&#xc0;" horiz-adv-x="1486" d="M14 0l539 1540h389l531 -1540h-373l-111 348h-549l-112 -348h-314zM270 1989h412l190 -291h-292zM522 598h389l-190 604z" />
<glyph unicode="&#xc1;" horiz-adv-x="1486" d="M14 0l539 1540h389l531 -1540h-373l-111 348h-549l-112 -348h-314zM522 598h389l-190 604zM606 1698l189 291h411l-309 -291h-291z" />
<glyph unicode="&#xc2;" horiz-adv-x="1486" d="M14 0l539 1540h389l531 -1540h-373l-111 348h-549l-112 -348h-314zM336 1698l233 291h338l234 -291h-293l-117 143l-115 -143h-280zM522 598h389l-190 604z" />
<glyph unicode="&#xc3;" horiz-adv-x="1486" d="M14 0l539 1540h389l531 -1540h-373l-111 348h-549l-112 -348h-314zM377 1698v190q4 3 11 9t30 20.5t48 25.5t63.5 20t76.5 9q65 0 169.5 -34.5t152.5 -34.5q46 0 95 17.5t75 34.5l26 17h17v-190q-4 -3 -11 -9t-30 -20.5t-48 -25.5t-63.5 -20t-77.5 -9q-65 0 -169 34.5 t-152 34.5q-46 0 -95.5 -17.5t-75.5 -34.5l-26 -17h-16zM522 598h389l-190 604z" />
<glyph unicode="&#xc4;" horiz-adv-x="1486" d="M14 0l539 1540h389l531 -1540h-373l-111 348h-549l-112 -348h-314zM340 1698v270h305v-270h-305zM522 598h389l-190 604zM834 1698v270h305v-270h-305z" />
<glyph unicode="&#xc5;" horiz-adv-x="1486" d="M14 0l521 1489q-113 69 -113 213q0 130 90.5 206.5t226.5 76.5t227 -76.5t91 -206.5q0 -132 -101 -203l517 -1499h-373l-111 348h-549l-112 -348h-314zM522 598h389l-190 604zM625 1686q0 -50 31 -81.5t83 -31.5t82.5 31.5t30.5 81.5t-30.5 82t-82.5 32t-83 -32t-31 -82z " />
<glyph unicode="&#xc6;" horiz-adv-x="2068" d="M-12 0l856 1540h1089v-262h-637v-352h539v-262h-539v-402h670v-262h-995v348h-477l-187 -348h-319zM627 598h344v641z" />
<glyph unicode="&#xc7;" horiz-adv-x="1314" d="M104 770q0 133 28.5 249.5t90 215.5t151.5 170t219 111t286 40q84 0 167 -11t124 -23l40 -11v-264h-16q-14 6 -39.5 14.5t-98 22.5t-136.5 14q-115 0 -202 -41t-139 -114t-78 -166.5t-26 -204.5t26 -205t78 -168t139 -115.5t202 -41.5q64 0 132.5 13t105.5 25l36 13h16 v-264q-112 -35 -268 -43q96 -62 96 -166q0 -96 -81.5 -156.5t-229.5 -60.5q-29 0 -60 2.5t-47 4.5l-16 3v168h17q49 -12 94 -12q108 0 108 88q0 61 -57 133q-135 13 -245 59.5t-187 117.5t-129 166t-76.5 204t-24.5 233z" />
<glyph unicode="&#xc8;" horiz-adv-x="1292" d="M176 0v1540h981v-262h-637v-352h539v-262h-539v-402h670v-262h-1014zM197 1989h411l191 -291h-293z" />
<glyph unicode="&#xc9;" horiz-adv-x="1292" d="M176 0v1540h981v-262h-637v-352h539v-262h-539v-402h670v-262h-1014zM532 1698l189 291h412l-310 -291h-291z" />
<glyph unicode="&#xca;" horiz-adv-x="1292" d="M176 0v1540h981v-262h-637v-352h539v-262h-539v-402h670v-262h-1014zM262 1698l234 291h338l233 -291h-293l-117 143l-114 -143h-281z" />
<glyph unicode="&#xcb;" horiz-adv-x="1292" d="M176 0v1540h981v-262h-637v-352h539v-262h-539v-402h670v-262h-1014zM297 1698v270h299v-270h-299zM733 1698v270h301v-270h-301z" />
<glyph unicode="&#xcc;" horiz-adv-x="702" d="M-119 1989h412l190 -291h-293zM176 0v1540h350v-1540h-350z" />
<glyph unicode="&#xcd;" horiz-adv-x="702" d="M176 0v1540h350v-1540h-350zM217 1698l189 291h411l-309 -291h-291z" />
<glyph unicode="&#xce;" horiz-adv-x="702" d="M-53 1698l233 291h338l234 -291h-293l-117 143l-115 -143h-280zM176 0v1540h350v-1540h-350z" />
<glyph unicode="&#xcf;" horiz-adv-x="702" d="M-18 1698v270h299v-270h-299zM176 0v1540h350v-1540h-350zM418 1698v270h301v-270h-301z" />
<glyph unicode="&#xd0;" horiz-adv-x="1677" d="M39 664v260h199v616h469q83 0 130 -2t127.5 -11t151.5 -32.5t137 -62.5q146 -85 233 -248t87 -414q0 -248 -86.5 -412.5t-237.5 -251.5q-66 -38 -139.5 -61.5t-151.5 -32.5t-120.5 -10.5t-108.5 -1.5h-22h-469v664h-199zM584 258h143q61 0 98 2t89.5 14.5t95.5 36.5 q102 57 148 171t46 288q0 355 -200 461q-44 24 -100 36t-89 13.5t-88 1.5h-143v-358h293v-260h-293v-406z" />
<glyph unicode="&#xd1;" horiz-adv-x="1656" d="M176 0v1540h342l658 -981v981h305v-1540h-305l-695 1012v-1012h-305zM465 1698v190q4 3 11 9t30 20.5t48 25.5t63.5 20t76.5 9q65 0 169.5 -34.5t152.5 -34.5q46 0 95 17.5t75 34.5l26 17h17v-190q-4 -3 -11 -9t-30 -20.5t-48 -25.5t-63.5 -20t-77.5 -9q-65 0 -169 34.5 t-152 34.5q-46 0 -95.5 -17.5t-75.5 -34.5l-26 -17h-16z" />
<glyph unicode="&#xd2;" horiz-adv-x="1695" d="M104 766q0 245 86.5 425.5t256 280t405.5 99.5q237 0 405 -100.5t251 -278.5t83 -418q0 -245 -86 -425.5t-255.5 -280t-405.5 -99.5q-237 0 -405.5 100.5t-251.5 278.5t-83 418zM379 1989h412l190 -291h-293zM475 770q0 -270 94.5 -406.5t278.5 -136.5t278.5 136.5 t94.5 406.5t-94.5 406.5t-278.5 136.5t-278.5 -136.5t-94.5 -406.5z" />
<glyph unicode="&#xd3;" horiz-adv-x="1695" d="M104 766q0 245 86.5 425.5t256 280t405.5 99.5q237 0 405 -100.5t251 -278.5t83 -418q0 -245 -86 -425.5t-255.5 -280t-405.5 -99.5q-237 0 -405.5 100.5t-251.5 278.5t-83 418zM475 770q0 -270 94.5 -406.5t278.5 -136.5t278.5 136.5t94.5 406.5t-94.5 406.5 t-278.5 136.5t-278.5 -136.5t-94.5 -406.5zM715 1698l188 291h412l-309 -291h-291z" />
<glyph unicode="&#xd4;" horiz-adv-x="1695" d="M104 766q0 245 86.5 425.5t256 280t405.5 99.5q237 0 405 -100.5t251 -278.5t83 -418q0 -245 -86 -425.5t-255.5 -280t-405.5 -99.5q-237 0 -405.5 100.5t-251.5 278.5t-83 418zM444 1698l234 291h338l233 -291h-293l-116 143l-115 -143h-281zM475 770 q0 -270 94.5 -406.5t278.5 -136.5t278.5 136.5t94.5 406.5t-94.5 406.5t-278.5 136.5t-278.5 -136.5t-94.5 -406.5z" />
<glyph unicode="&#xd5;" horiz-adv-x="1695" d="M104 766q0 245 86.5 425.5t256 280t405.5 99.5q237 0 405 -100.5t251 -278.5t83 -418q0 -245 -86 -425.5t-255.5 -280t-405.5 -99.5q-237 0 -405.5 100.5t-251.5 278.5t-83 418zM475 770q0 -270 94.5 -406.5t278.5 -136.5t278.5 136.5t94.5 406.5t-94.5 406.5 t-278.5 136.5t-278.5 -136.5t-94.5 -406.5zM485 1698v190q4 3 11 9t30.5 20.5t48.5 25.5t63.5 20t76.5 9q65 0 169 -34.5t152 -34.5q46 0 95.5 17.5t75.5 34.5l26 17h16v-190q-4 -3 -10.5 -9t-30 -20.5t-48 -25.5t-63 -20t-77.5 -9q-65 0 -169.5 34.5t-152.5 34.5 q-46 0 -95 -17.5t-75 -34.5l-26 -17h-17z" />
<glyph unicode="&#xd6;" horiz-adv-x="1695" d="M104 766q0 245 86.5 425.5t256 280t405.5 99.5q237 0 405 -100.5t251 -278.5t83 -418q0 -245 -86 -425.5t-255.5 -280t-405.5 -99.5q-237 0 -405.5 100.5t-251.5 278.5t-83 418zM449 1698v270h305v-270h-305zM475 770q0 -270 94.5 -406.5t278.5 -136.5t278.5 136.5 t94.5 406.5t-94.5 406.5t-278.5 136.5t-278.5 -136.5t-94.5 -406.5zM942 1698v270h305v-270h-305z" />
<glyph unicode="&#xd7;" d="M176 238l336 333l-336 332l201 191l328 -344l327 344l182 -179l-335 -333l335 -332l-200 -191l-328 344l-328 -344z" />
<glyph unicode="&#xd8;" horiz-adv-x="1695" d="M90 -57l203 247q-189 210 -189 580q0 371 195 586t549 215q204 0 366 -78l72 104h320l-203 -247q188 -212 188 -580q0 -371 -194.5 -586t-548.5 -215q-205 0 -367 78l-71 -104h-320zM451 770q0 -192 47 -319l563 821q-86 59 -213 59q-196 0 -296.5 -140.5t-100.5 -420.5z M633 268q85 -59 215 -59q196 0 296.5 140.5t100.5 420.5q0 192 -49 317z" />
<glyph unicode="&#xd9;" horiz-adv-x="1601" d="M176 621v919h350v-975q0 -77 12.5 -134t44 -105.5t92 -73.5t148.5 -25t148.5 25t92 73.5t44 105.5t12.5 134v975h305v-919q0 -70 -2 -110.5t-12.5 -108.5t-37 -127.5t-70.5 -112.5q-161 -193 -504 -193q-341 0 -500 193q-35 43 -59.5 94t-37 92t-18.5 98t-7 88t-1 87z M338 1989h412l190 -291h-293z" />
<glyph unicode="&#xda;" horiz-adv-x="1601" d="M176 621v919h350v-975q0 -77 12.5 -134t44 -105.5t92 -73.5t148.5 -25t148.5 25t92 73.5t44 105.5t12.5 134v975h305v-919q0 -70 -2 -110.5t-12.5 -108.5t-37 -127.5t-70.5 -112.5q-161 -193 -504 -193q-341 0 -500 193q-35 43 -59.5 94t-37 92t-18.5 98t-7 88t-1 87z M674 1698l188 291h412l-309 -291h-291z" />
<glyph unicode="&#xdb;" horiz-adv-x="1601" d="M176 621v919h350v-975q0 -77 12.5 -134t44 -105.5t92 -73.5t148.5 -25t148.5 25t92 73.5t44 105.5t12.5 134v975h305v-919q0 -70 -2 -110.5t-12.5 -108.5t-37 -127.5t-70.5 -112.5q-161 -193 -504 -193q-341 0 -500 193q-35 43 -59.5 94t-37 92t-18.5 98t-7 88t-1 87z M403 1698l234 291h338l233 -291h-293l-116 143l-115 -143h-281z" />
<glyph unicode="&#xdc;" horiz-adv-x="1601" d="M176 621v919h350v-975q0 -77 12.5 -134t44 -105.5t92 -73.5t148.5 -25t148.5 25t92 73.5t44 105.5t12.5 134v975h305v-919q0 -70 -2 -110.5t-12.5 -108.5t-37 -127.5t-70.5 -112.5q-161 -193 -504 -193q-341 0 -500 193q-35 43 -59.5 94t-37 92t-18.5 98t-7 88t-1 87z M408 1698v270h305v-270h-305zM901 1698v270h305v-270h-305z" />
<glyph unicode="&#xdd;" horiz-adv-x="1413" d="M14 1540h408l326 -633l323 633h328l-516 -940v-600h-351v594zM608 1698l189 291h411l-309 -291h-291z" />
<glyph unicode="&#xde;" horiz-adv-x="1415" d="M176 0v1540h350v-233h117q65 0 105.5 -1.5t108.5 -9t129 -27t114 -50.5q231 -135 231 -439q0 -161 -67.5 -275.5t-186.5 -180.5q-67 -37 -150.5 -56.5t-139.5 -22.5t-146 -3h-115v-242h-350zM526 500h125q43 0 70 1.5t70 11.5t73 30q53 35 78 96.5t25 134.5 q0 75 -26 135.5t-77 94.5q-30 21 -73 31.5t-70 12t-70 1.5h-125v-549z" />
<glyph unicode="&#xdf;" horiz-adv-x="1419" d="M154 0v1061q0 88 2 131t13.5 101t35.5 102q113 209 483 209q137 0 240.5 -29t164.5 -80.5t91 -115.5t30 -140q0 -69 -24 -124.5t-59 -90t-69.5 -62.5t-58.5 -56.5t-24 -57.5q0 -27 20 -53t52 -49.5t70.5 -49.5t77 -59.5t70.5 -73t52 -96.5t20 -123q0 -170 -125.5 -265 t-347.5 -95q-61 0 -116 7t-80 14l-25 7v236h17q112 -37 204 -37q129 0 129 90q0 46 -36.5 87t-88 77.5t-103 79t-88 109t-36.5 149.5q0 66 23 118t56.5 85t66.5 62t56 64.5t23 77.5q0 65 -50.5 106.5t-135.5 41.5q-119 0 -166 -86q-13 -23 -19 -56t-6.5 -57t-0.5 -86v-1073 h-338z" />
<glyph unicode="&#xe0;" horiz-adv-x="1245" d="M76 326q0 210 178 301q64 34 160 50.5t161 18.5t191 2q0 39 -1 58.5t-7.5 47t-20.5 46.5q-50 68 -205 68q-75 0 -157.5 -15t-128.5 -30l-45 -15h-17v252q19 5 53.5 13t138 21t204.5 13q163 0 278.5 -36.5t175.5 -125.5q31 -45 47 -108.5t18.5 -110t2.5 -121.5v-655h-260 l-58 184q-24 -94 -107.5 -151.5t-217.5 -57.5q-170 0 -276.5 92.5t-106.5 258.5zM219 1597h367l155 -297h-268zM422 350q0 -59 36.5 -92t106.5 -33q59 0 105 24.5t69 67.5q27 53 27 162v27q-105 0 -168.5 -7t-105.5 -30q-70 -37 -70 -119z" />
<glyph unicode="&#xe1;" horiz-adv-x="1245" d="M76 326q0 210 178 301q64 34 160 50.5t161 18.5t191 2q0 39 -1 58.5t-7.5 47t-20.5 46.5q-50 68 -205 68q-75 0 -157.5 -15t-128.5 -30l-45 -15h-17v252q19 5 53.5 13t138 21t204.5 13q163 0 278.5 -36.5t175.5 -125.5q31 -45 47 -108.5t18.5 -110t2.5 -121.5v-655h-260 l-58 184q-24 -94 -107.5 -151.5t-217.5 -57.5q-170 0 -276.5 92.5t-106.5 258.5zM422 350q0 -59 36.5 -92t106.5 -33q59 0 105 24.5t69 67.5q27 53 27 162v27q-105 0 -168.5 -7t-105.5 -30q-70 -37 -70 -119zM492 1300l155 297h367l-254 -297h-268z" />
<glyph unicode="&#xe2;" horiz-adv-x="1245" d="M76 326q0 210 178 301q64 34 160 50.5t161 18.5t191 2q0 39 -1 58.5t-7.5 47t-20.5 46.5q-50 68 -205 68q-75 0 -157.5 -15t-128.5 -30l-45 -15h-17v252q19 5 53.5 13t138 21t204.5 13q163 0 278.5 -36.5t175.5 -125.5q31 -45 47 -108.5t18.5 -110t2.5 -121.5v-655h-260 l-58 184q-24 -94 -107.5 -151.5t-217.5 -57.5q-170 0 -276.5 92.5t-106.5 258.5zM238 1300l233 297h291l233 -297h-270l-117 146l-114 -146h-256zM422 350q0 -59 36.5 -92t106.5 -33q59 0 105 24.5t69 67.5q27 53 27 162v27q-105 0 -168.5 -7t-105.5 -30q-70 -37 -70 -119z " />
<glyph unicode="&#xe3;" horiz-adv-x="1245" d="M76 326q0 210 178 301q64 34 160 50.5t161 18.5t191 2q0 39 -1 58.5t-7.5 47t-20.5 46.5q-50 68 -205 68q-75 0 -157.5 -15t-128.5 -30l-45 -15h-17v252q19 5 53.5 13t138 21t204.5 13q163 0 278.5 -36.5t175.5 -125.5q31 -45 47 -108.5t18.5 -110t2.5 -121.5v-655h-260 l-58 184q-24 -94 -107.5 -151.5t-217.5 -57.5q-170 0 -276.5 92.5t-106.5 258.5zM272 1300v179q10 10 28 25t73.5 40t111.5 25q61 0 157.5 -38t141.5 -38q43 0 88 19t69 38l24 19h16v-178q-4 -4 -10.5 -10t-28 -21.5t-45 -27.5t-58.5 -22t-71 -10q-60 0 -156.5 38t-140.5 38 q-43 0 -88.5 -19t-69.5 -38l-24 -19h-17zM422 350q0 -59 36.5 -92t106.5 -33q59 0 105 24.5t69 67.5q27 53 27 162v27q-105 0 -168.5 -7t-105.5 -30q-70 -37 -70 -119z" />
<glyph unicode="&#xe4;" horiz-adv-x="1245" d="M76 326q0 210 178 301q64 34 160 50.5t161 18.5t191 2q0 39 -1 58.5t-7.5 47t-20.5 46.5q-50 68 -205 68q-75 0 -157.5 -15t-128.5 -30l-45 -15h-17v252q19 5 53.5 13t138 21t204.5 13q163 0 278.5 -36.5t175.5 -125.5q31 -45 47 -108.5t18.5 -110t2.5 -121.5v-655h-260 l-58 184q-24 -94 -107.5 -151.5t-217.5 -57.5q-170 0 -276.5 92.5t-106.5 258.5zM246 1300v269h293v-269h-293zM422 350q0 -59 36.5 -92t106.5 -33q59 0 105 24.5t69 67.5q27 53 27 162v27q-105 0 -168.5 -7t-105.5 -30q-70 -37 -70 -119zM692 1300v269h295v-269h-295z" />
<glyph unicode="&#xe5;" horiz-adv-x="1245" d="M76 326q0 210 178 301q64 34 160 50.5t161 18.5t191 2q0 39 -1 58.5t-7.5 47t-20.5 46.5q-50 68 -205 68q-75 0 -157.5 -15t-128.5 -30l-45 -15h-17v252q19 5 53.5 13t138 21t204.5 13q163 0 278.5 -36.5t175.5 -125.5q31 -45 47 -108.5t18.5 -110t2.5 -121.5v-655h-260 l-58 184q-24 -94 -107.5 -151.5t-217.5 -57.5q-170 0 -276.5 92.5t-106.5 258.5zM328 1475q0 103 75 167t213 64q137 0 213 -64t76 -167t-76 -167.5t-213 -64.5q-138 0 -213 64.5t-75 167.5zM422 350q0 -59 36.5 -92t106.5 -33q59 0 105 24.5t69 67.5q27 53 27 162v27 q-105 0 -168.5 -7t-105.5 -30q-70 -37 -70 -119zM518 1475q0 -42 26.5 -69.5t71.5 -27.5t71 27.5t26 69.5q0 41 -26.5 68.5t-70.5 27.5q-45 0 -71.5 -27.5t-26.5 -68.5z" />
<glyph unicode="&#xe6;" horiz-adv-x="1933" d="M76 328q0 192 149 284q50 31 111 49.5t142 26t134.5 9t153.5 1.5q0 39 -1 59t-7.5 47t-20.5 46q-50 68 -202 68q-76 0 -159.5 -15t-129.5 -30l-45 -15h-17v252q19 5 53.5 13t137 21t200.5 13q297 0 398 -125q30 45 119 87t227 42q141 0 250.5 -50.5t173.5 -147.5 q31 -48 49.5 -100.5t26 -122.5t9 -118.5t1.5 -144.5h-723q0 -120 77 -187t224 -67q68 0 152 14.5t134 28.5l50 15h16v-248q-19 -5 -53 -13.5t-135.5 -22t-198.5 -13.5q-200 0 -323.5 57.5t-176.5 181.5q-89 -239 -399 -239q-191 0 -294 89.5t-103 254.5zM422 354 q0 -59 38.5 -92t108.5 -33q121 0 170 90q27 53 27 162v25q-105 0 -168.5 -7t-105.5 -30q-70 -37 -70 -115zM1104 686h383q0 123 -43.5 185.5t-138.5 62.5q-192 0 -201 -248z" />
<glyph unicode="&#xe7;" horiz-adv-x="1032" d="M92 571q0 278 151.5 432t440.5 154q67 0 130 -8.5t92 -16.5l30 -8v-262h-16q-99 37 -201 37q-266 0 -266 -330q0 -327 266 -327q45 0 95.5 9t77.5 19l28 9h16v-263q-82 -24 -205 -30q96 -62 96 -166q0 -96 -81.5 -156.5t-229.5 -60.5q-29 0 -60 2.5t-47 4.5l-16 3v168h17 q49 -12 94 -12q108 0 108 88q0 58 -61 137q-225 33 -342 183t-117 394z" />
<glyph unicode="&#xe8;" horiz-adv-x="1267" d="M92 569q0 278 144.5 440t408.5 162q144 0 255.5 -50.5t176.5 -149.5q31 -48 49.5 -102t26 -126t9 -121t1.5 -145h-723q0 -120 76.5 -187t222.5 -67q69 0 153.5 15t134.5 30l50 15h17v-250q-19 -5 -53 -13.5t-134 -22t-196 -13.5q-305 0 -457 139q-162 150 -162 446z M242 1597h366l156 -297h-268zM438 686h383q0 124 -41 190t-139 66q-190 0 -203 -256z" />
<glyph unicode="&#xe9;" horiz-adv-x="1267" d="M92 569q0 278 144.5 440t408.5 162q144 0 255.5 -50.5t176.5 -149.5q31 -48 49.5 -102t26 -126t9 -121t1.5 -145h-723q0 -120 76.5 -187t222.5 -67q69 0 153.5 15t134.5 30l50 15h17v-250q-19 -5 -53 -13.5t-134 -22t-196 -13.5q-305 0 -457 139q-162 150 -162 446z M438 686h383q0 124 -41 190t-139 66q-190 0 -203 -256zM514 1300l156 297h366l-254 -297h-268z" />
<glyph unicode="&#xea;" horiz-adv-x="1267" d="M92 569q0 278 144.5 440t408.5 162q144 0 255.5 -50.5t176.5 -149.5q31 -48 49.5 -102t26 -126t9 -121t1.5 -145h-723q0 -120 76.5 -187t222.5 -67q69 0 153.5 15t134.5 30l50 15h17v-250q-19 -5 -53 -13.5t-134 -22t-196 -13.5q-305 0 -457 139q-162 150 -162 446z M260 1300l234 297h290l234 -297h-270l-117 146l-115 -146h-256zM438 686h383q0 124 -41 190t-139 66q-190 0 -203 -256z" />
<glyph unicode="&#xeb;" horiz-adv-x="1267" d="M92 569q0 278 144.5 440t408.5 162q144 0 255.5 -50.5t176.5 -149.5q31 -48 49.5 -102t26 -126t9 -121t1.5 -145h-723q0 -120 76.5 -187t222.5 -67q69 0 153.5 15t134.5 30l50 15h17v-250q-19 -5 -53 -13.5t-134 -22t-196 -13.5q-305 0 -457 139q-162 150 -162 446z M268 1300v269h293v-269h-293zM438 686h383q0 124 -41 190t-139 66q-190 0 -203 -256zM715 1300v269h295v-269h-295z" />
<glyph unicode="&#xec;" horiz-adv-x="645" d="M-76 1597h367l155 -297h-268zM154 0v1141h338v-1141h-338z" />
<glyph unicode="&#xed;" horiz-adv-x="645" d="M154 0v1141h338v-1141h-338zM197 1300l155 297h367l-254 -297h-268z" />
<glyph unicode="&#xee;" horiz-adv-x="645" d="M-57 1300l233 297h291l233 -297h-270l-117 146l-114 -146h-256zM154 0v1141h338v-1141h-338z" />
<glyph unicode="&#xef;" horiz-adv-x="645" d="M-20 1300v269h272v-269h-272zM154 0v1141h338v-1141h-338zM391 1300v269h273v-269h-273z" />
<glyph unicode="&#xf0;" horiz-adv-x="1355" d="M92 483q0 114 39.5 212.5t107 166t158 106t191.5 38.5q203 0 303 -164q-43 171 -201 346l-323 -150v166l213 99q-81 75 -174 144.5t-146 101.5l-53 32v16h424q104 -56 229 -167l316 145v-162l-205 -94q278 -315 278 -688q0 -161 -48.5 -287.5t-129.5 -208.5 q-163 -166 -426 -166q-245 0 -399 140.5t-154 373.5zM451 494q0 -130 58 -207.5t163 -77.5t163 77.5t58 207.5t-58 207t-163 77t-163 -77t-58 -207z" />
<glyph unicode="&#xf1;" horiz-adv-x="1363" d="M154 0v1141h266l61 -197q64 221 346 221q230 0 328 -145q24 -34 38 -71t20 -87t7 -85.5t1 -106.5v-670h-344v672q0 36 -1 55.5t-8 47t-22 48.5q-47 68 -158 68q-190 0 -190 -207v-684h-344zM344 1300v179q10 10 28 25t73.5 40t111.5 25q61 0 157.5 -38t141.5 -38 q43 0 88 19t68 38l24 19h17v-178q-4 -4 -10.5 -10t-28 -21.5t-45 -27.5t-58.5 -22t-71 -10q-60 0 -156.5 38t-140.5 38q-43 0 -88.5 -19t-70.5 -38l-24 -19h-16z" />
<glyph unicode="&#xf2;" horiz-adv-x="1353" d="M92 567q0 295 152 449.5t434 154.5q280 0 432 -151.5t152 -446.5t-152 -449.5t-434 -154.5q-280 0 -432 151.5t-152 446.5zM279 1597h366l156 -297h-269zM453 573q0 -368 225 -368q223 0 223 362q0 369 -225 369q-223 0 -223 -363z" />
<glyph unicode="&#xf3;" horiz-adv-x="1353" d="M92 567q0 295 152 449.5t434 154.5q280 0 432 -151.5t152 -446.5t-152 -449.5t-434 -154.5q-280 0 -432 151.5t-152 446.5zM453 573q0 -368 225 -368q223 0 223 362q0 369 -225 369q-223 0 -223 -363zM551 1300l156 297h366l-254 -297h-268z" />
<glyph unicode="&#xf4;" horiz-adv-x="1353" d="M92 567q0 295 152 449.5t434 154.5q280 0 432 -151.5t152 -446.5t-152 -449.5t-434 -154.5q-280 0 -432 151.5t-152 446.5zM297 1300l233 297h291l234 -297h-271l-116 146l-115 -146h-256zM453 573q0 -368 225 -368q223 0 223 362q0 369 -225 369q-223 0 -223 -363z" />
<glyph unicode="&#xf5;" horiz-adv-x="1353" d="M92 567q0 295 152 449.5t434 154.5q280 0 432 -151.5t152 -446.5t-152 -449.5t-434 -154.5q-280 0 -432 151.5t-152 446.5zM332 1300v179q10 10 28 25t73.5 40t111.5 25q61 0 157.5 -38t141.5 -38q43 0 88 19t68 38l24 19h16v-178q-4 -4 -10.5 -10t-28 -21.5t-45 -27.5 t-58.5 -22t-71 -10q-60 0 -156.5 38t-140.5 38q-43 0 -88.5 -19t-69.5 -38l-24 -19h-16zM453 573q0 -368 225 -368q223 0 223 362q0 369 -225 369q-223 0 -223 -363z" />
<glyph unicode="&#xf6;" horiz-adv-x="1353" d="M92 567q0 295 152 449.5t434 154.5q280 0 432 -151.5t152 -446.5t-152 -449.5t-434 -154.5q-280 0 -432 151.5t-152 446.5zM305 1300v269h293v-269h-293zM453 573q0 -368 225 -368q223 0 223 362q0 369 -225 369q-223 0 -223 -363zM752 1300v269h295v-269h-295z" />
<glyph unicode="&#xf7;" d="M139 459v235h1114v-235h-1114zM524 14v283h344v-283h-344zM524 858v283h344v-283h-344z" />
<glyph unicode="&#xf8;" horiz-adv-x="1351" d="M92 571q0 293 154 446.5t430 153.5q118 0 217 -30l68 125h235l-137 -207q201 -153 201 -490q0 -293 -154 -446.5t-430 -153.5q-115 0 -217 31l-68 -125h-235l135 207q-199 154 -199 489zM432 563q0 -133 27 -219l317 584q-43 16 -94 16q-135 0 -192.5 -94.5t-57.5 -286.5 zM573 211q41 -14 97 -14q135 0 192.5 94.5t57.5 286.5q0 136 -29 219z" />
<glyph unicode="&#xf9;" horiz-adv-x="1357" d="M154 471v670h344v-672q0 -38 1 -56t8 -46.5t21 -49.5q48 -67 156 -67q47 0 81 14.5t52 35t28 51.5t12.5 54t2.5 52v684h344v-1141h-266l-61 197q-29 -104 -114 -163t-228 -59q-220 0 -316 142q-24 34 -38 71t-19.5 89.5t-6.5 86t-1 107.5zM281 1597h366l156 -297h-268z " />
<glyph unicode="&#xfa;" horiz-adv-x="1357" d="M154 471v670h344v-672q0 -38 1 -56t8 -46.5t21 -49.5q48 -67 156 -67q47 0 81 14.5t52 35t28 51.5t12.5 54t2.5 52v684h344v-1141h-266l-61 197q-29 -104 -114 -163t-228 -59q-220 0 -316 142q-24 34 -38 71t-19.5 89.5t-6.5 86t-1 107.5zM553 1300l156 297h366 l-254 -297h-268z" />
<glyph unicode="&#xfb;" horiz-adv-x="1357" d="M154 471v670h344v-672q0 -38 1 -56t8 -46.5t21 -49.5q48 -67 156 -67q47 0 81 14.5t52 35t28 51.5t12.5 54t2.5 52v684h344v-1141h-266l-61 197q-29 -104 -114 -163t-228 -59q-220 0 -316 142q-24 34 -38 71t-19.5 89.5t-6.5 86t-1 107.5zM299 1300l233 297h291l234 -297 h-271l-116 146l-115 -146h-256z" />
<glyph unicode="&#xfc;" horiz-adv-x="1357" d="M154 471v670h344v-672q0 -38 1 -56t8 -46.5t21 -49.5q48 -67 156 -67q47 0 81 14.5t52 35t28 51.5t12.5 54t2.5 52v684h344v-1141h-266l-61 197q-29 -104 -114 -163t-228 -59q-220 0 -316 142q-24 34 -38 71t-19.5 89.5t-6.5 86t-1 107.5zM307 1300v269h293v-269h-293z M754 1300v269h295v-269h-295z" />
<glyph unicode="&#xfd;" horiz-adv-x="1288" d="M47 1141h377l250 -727l254 727h311l-600 -1534h-344l190 416zM539 1300l155 297h367l-254 -297h-268z" />
<glyph unicode="&#xfe;" horiz-adv-x="1398" d="M154 -393v1990h338v-634q33 99 122.5 150.5t216.5 51.5q155 0 264 -77.5t160.5 -207.5t51.5 -300q0 -128 -31 -236.5t-91 -191.5t-156.5 -130t-219.5 -47q-247 0 -317 179v-547h-338zM489 567q0 -338 230 -338q227 0 227 338q0 342 -227 342q-230 0 -230 -342z" />
<glyph unicode="&#xff;" horiz-adv-x="1288" d="M47 1141h377l250 -727l254 727h311l-600 -1534h-344l190 416zM293 1300v269h293v-269h-293zM739 1300v269h295v-269h-295z" />
<glyph unicode="&#x152;" horiz-adv-x="2248" d="M104 768q0 229 75.5 394t211.5 259q50 34 108.5 58t105 35.5t108 17.5t93 7t83.5 1h1225v-262h-738q5 -3 14 -10.5t33.5 -36.5t45 -65t42.5 -100.5t33 -139.5h471v-262h-467q-6 -65 -19 -122t-29 -96.5t-33.5 -72.5t-34.5 -53t-30.5 -33.5t-21.5 -18.5l-8 -6h774v-262 h-1272q-66 0 -109 2.5t-116 12t-140 35.5t-126 67q-133 92 -206 259t-73 392zM475 770q0 -268 93 -400t270 -132q362 0 362 532q0 530 -362 530q-363 0 -363 -530z" />
<glyph unicode="&#x153;" horiz-adv-x="2056" d="M92 565q0 288 152 447t407 159q155 0 261.5 -57t150.5 -156q3 9 10.5 23t39 51t71.5 65t112.5 51t159.5 23q137 0 242 -53.5t168 -150.5q31 -49 49.5 -101t26 -122.5t9 -119.5t1.5 -147h-723q0 -122 77.5 -188t225.5 -66q68 0 151.5 14.5t132.5 28.5l50 15h16v-248 q-19 -5 -52.5 -13.5t-133 -22t-193.5 -13.5q-175 0 -286 48t-162 158q-49 -98 -158 -159.5t-264 -61.5q-244 0 -392.5 155.5t-148.5 440.5zM453 573q0 -368 219 -368t219 362q0 369 -221 369q-217 0 -217 -363zM1229 686h381q0 124 -41 190t-137 66q-100 0 -150 -68 t-53 -188z" />
<glyph unicode="&#x178;" horiz-adv-x="1413" d="M14 1540h408l326 -633l323 633h328l-516 -940v-600h-351v594zM342 1698v270h305v-270h-305zM836 1698v270h305v-270h-305z" />
<glyph unicode="&#x2c6;" horiz-adv-x="1228" d="M236 1300l233 297h291l233 -297h-270l-117 146l-114 -146h-256z" />
<glyph unicode="&#x2dc;" horiz-adv-x="1228" d="M270 1300v179q10 10 28 25t73.5 40t111.5 25q61 0 157.5 -38t141.5 -38q43 0 88 19t69 38l24 19h16v-178q-4 -4 -10.5 -10t-28 -21.5t-45 -27.5t-58.5 -22t-71 -10q-60 0 -156.5 38t-140.5 38q-43 0 -88.5 -19t-69.5 -38l-24 -19h-17z" />
<glyph unicode="&#x2000;" horiz-adv-x="994" />
<glyph unicode="&#x2001;" horiz-adv-x="1989" />
<glyph unicode="&#x2002;" horiz-adv-x="994" />
<glyph unicode="&#x2003;" horiz-adv-x="1989" />
<glyph unicode="&#x2004;" horiz-adv-x="663" />
<glyph unicode="&#x2005;" horiz-adv-x="497" />
<glyph unicode="&#x2006;" horiz-adv-x="331" />
<glyph unicode="&#x2007;" horiz-adv-x="331" />
<glyph unicode="&#x2008;" horiz-adv-x="248" />
<glyph unicode="&#x2009;" horiz-adv-x="397" />
<glyph unicode="&#x200a;" horiz-adv-x="110" />
<glyph unicode="&#x2010;" horiz-adv-x="907" d="M119 514v260h669v-260h-669z" />
<glyph unicode="&#x2011;" horiz-adv-x="907" d="M119 514v260h669v-260h-669z" />
<glyph unicode="&#x2012;" horiz-adv-x="907" d="M119 514v260h669v-260h-669z" />
<glyph unicode="&#x2013;" horiz-adv-x="1376" d="M152 522v246h1073v-246h-1073z" />
<glyph unicode="&#x2014;" horiz-adv-x="2154" d="M152 522v246h1851v-246h-1851z" />
<glyph unicode="&#x2018;" horiz-adv-x="655" d="M104 1020l156 577h242l-82 -577h-316z" />
<glyph unicode="&#x2019;" horiz-adv-x="663" d="M133 1020l82 577h315l-155 -577h-242z" />
<glyph unicode="&#x201a;" horiz-adv-x="616" d="M104 -254l82 578h316l-156 -578h-242z" />
<glyph unicode="&#x201c;" horiz-adv-x="1069" d="M111 1020l149 577h229l-81 -577h-297zM535 1020l149 577h229l-82 -577h-296z" />
<glyph unicode="&#x201d;" horiz-adv-x="1069" d="M133 1020l82 577h297l-150 -577h-229zM557 1020l82 577h297l-150 -577h-229z" />
<glyph unicode="&#x201e;" horiz-adv-x="1021" d="M104 -254l82 578h297l-149 -578h-230zM528 -254l82 578h297l-149 -578h-230z" />
<glyph unicode="&#x2022;" horiz-adv-x="706" d="M125 426v444h444v-444h-444z" />
<glyph unicode="&#x2026;" horiz-adv-x="1974" d="M215 0v307h317v-307h-317zM827 0v307h318v-307h-318zM1442 0v307h317v-307h-317z" />
<glyph unicode="&#x202f;" horiz-adv-x="397" />
<glyph unicode="&#x2039;" horiz-adv-x="768" d="M106 643l250 455h306l-271 -451l271 -457h-306z" />
<glyph unicode="&#x203a;" horiz-adv-x="768" d="M106 190l271 449l-271 459h306l250 -455l-250 -453h-306z" />
<glyph unicode="&#x205f;" horiz-adv-x="497" />
<glyph unicode="&#x20ac;" horiz-adv-x="1353" d="M70 449v194h159q-2 18 -2 59q0 44 2 64h-159v195h192q65 214 236 338t446 124q76 0 148.5 -9.5t106.5 -19.5l34 -10v-254h-14q-121 46 -252 46q-254 0 -349 -215h504l-45 -195h-504q-2 -18 -2 -57q0 -46 2 -66h478l-45 -194h-385q99 -216 350 -216q57 0 119 11.5t96 23.5 l33 11h14v-254q-117 -39 -291 -39q-275 0 -446 124.5t-234 338.5h-192z" />
<glyph unicode="&#x2122;" horiz-adv-x="1757" d="M43 1350v190h588v-190h-174v-490h-240v490h-174zM750 860v680h325l131 -385l131 385h320v-680h-227v451l-146 -410h-188l-146 410v-451h-200z" />
<glyph unicode="&#x25fc;" horiz-adv-x="1136" d="M0 0v1137h1137v-1137h-1137z" />
</font>
</defs>
</svg>
